<svg width="32" height="32" viewBox="0 0 32 32" fill="none" xmlns="http://www.w3.org/2000/svg">
<mask id="path-1-outside-1_179_9605" maskUnits="userSpaceOnUse" x="4" y="1" width="24" height="31" fill="black">
<rect fill="white" x="4" y="1" width="24" height="31"/>
<path fill-rule="evenodd" clip-rule="evenodd" d="M26.5073 2H5V8.08696H26.5073V2ZM19.8118 8.08718H11.6958V30.0002H19.8118V8.08718Z"/>
</mask>
<path fill-rule="evenodd" clip-rule="evenodd" d="M26.5073 2H5V8.08696H26.5073V2ZM19.8118 8.08718H11.6958V30.0002H19.8118V8.08718Z" fill="#F19BAF"/>
<path d="M5 2V1H4V2H5ZM26.5073 2H27.5073V1H26.5073V2ZM5 8.08696H4V9.08696H5V8.08696ZM26.5073 8.08696V9.08696H27.5073V8.08696H26.5073ZM11.6958 8.08718V7.08718H10.6958V8.08718H11.6958ZM19.8118 8.08718H20.8118V7.08718H19.8118V8.08718ZM11.6958 30.0002H10.6958V31.0002H11.6958V30.0002ZM19.8118 30.0002V31.0002H20.8118V30.0002H19.8118ZM5 3H26.5073V1H5V3ZM6 8.08696V2H4V8.08696H6ZM26.5073 7.08696H5V9.08696H26.5073V7.08696ZM25.5073 2V8.08696H27.5073V2H25.5073ZM11.6958 9.08718H19.8118V7.08718H11.6958V9.08718ZM12.6958 30.0002V8.08718H10.6958V30.0002H12.6958ZM19.8118 29.0002H11.6958V31.0002H19.8118V29.0002ZM18.8118 8.08718V30.0002H20.8118V8.08718H18.8118Z" fill="black" mask="url(#path-1-outside-1_179_9605)"/>
<path d="M12.3044 4.02856H22.8552" stroke="black" stroke-width="0.4"/>
<path d="M23.2609 4.02856H23.6667" stroke="black" stroke-width="0.4"/>
<rect opacity="0.4" x="13.319" y="10.116" width="2.43478" height="2.43478" fill="#F5EFFE"/>
<rect opacity="0.4" x="13.319" y="13.7681" width="2.43478" height="14.6087" fill="#F5EFFE"/>
</svg>