<svg width="32" height="32" viewBox="0 0 32 32" fill="none" xmlns="http://www.w3.org/2000/svg">
<circle cx="16" cy="16" r="16" fill="#EE80EA"/>
<rect x="10.9474" y="2.52637" width="3.36842" height="10.1053" rx="1.68421" fill="white"/>
<rect x="17.6842" y="2.52637" width="3.36842" height="10.1053" rx="1.68421" fill="white"/>
<path fill-rule="evenodd" clip-rule="evenodd" d="M1.99182 23.7374C5.51861 20.5266 10.4906 18.5264 15.9999 18.5264C21.5092 18.5264 26.4813 20.5266 30.0081 23.7374C27.2809 28.6643 22.03 32.0001 15.9999 32.0001C9.96991 32.0001 4.71899 28.6643 1.99182 23.7374Z" fill="#5A5AF5"/>
<path d="M6.73682 16C6.73682 10.8841 10.8841 6.73682 16 6.73682C21.1159 6.73682 25.2631 10.8841 25.2631 16C25.2631 21.1159 21.1159 25.2631 16 25.2631C10.8841 25.2631 6.73682 21.1159 6.73682 16Z" fill="white"/>
<path fill-rule="evenodd" clip-rule="evenodd" d="M14.6464 18.2978C14.829 18.1152 15.1379 18.1279 15.3362 18.3263C15.867 18.8571 16.5017 18.7136 16.7493 18.2997C16.8825 18.0771 17.1805 18.0199 17.4149 18.1719C17.6493 18.324 17.7314 18.6278 17.5982 18.8504C17.0534 19.761 15.6872 19.9998 14.6749 18.9876C14.4766 18.7892 14.4638 18.4804 14.6464 18.2978Z" fill="#0D0D0D"/>
<ellipse cx="19.3685" cy="15.1578" rx="0.842105" ry="0.842105" fill="#0D0D0D"/>
<circle cx="12.6315" cy="15.1578" r="0.842105" fill="#0D0D0D"/>
</svg>
