<svg width="280" height="214" viewBox="0 0 280 214" fill="none" xmlns="http://www.w3.org/2000/svg">
<rect width="280" height="214" rx="16" fill="#1C276E"/>
<circle cx="140" cy="110" r="29" fill="#FFD200"/>
<path fill-rule="evenodd" clip-rule="evenodd" d="M162.331 112.339C162.411 111.571 162.452 110.79 162.452 110C162.452 97.6005 152.4 87.5486 140 87.5486C127.601 87.5486 117.549 97.6005 117.549 110C117.549 110.79 117.589 111.57 117.669 112.339C118.839 101.038 128.39 92.2262 140 92.2262C151.61 92.2262 161.162 101.039 162.331 112.339Z" fill="#140F4C"/>
<path opacity="0.8" fill-rule="evenodd" clip-rule="evenodd" d="M143.667 36.8895L162.894 70.5001L200.978 70.5001L143.667 36.8895ZM136.281 36.9808L117.106 70.5001L80.4151 70.5001L136.281 36.9808ZM139.328 31.6539L74.5842 70.5001H71.9139L73.5 73.2728V146.727L71.9138 149.5H73.5V149.849L139.991 189.744L208 149.859V149.5H208.086L208 149.349V71.1407L207.79 71.0176L208.086 70.5001H206.908L140.673 31.6558L140 30.479L139.328 31.6539ZM205 75.8951L185.49 110L205 144.105V75.8951ZM202.682 149.5H162.894L142.806 184.615L202.682 149.5ZM137.151 184.542L117.106 149.5H78.7487L137.151 184.542ZM76.5 141.483L94.5098 110L76.5 78.5171V141.483ZM140 36.5207L159.438 70.5001L120.562 70.5001L140 36.5207ZM182.034 110L161.154 73.5001L118.846 73.5001L97.966 110L118.846 146.5H161.154L182.034 110ZM77.0862 73.5001L115.39 73.5001L96.2379 106.979L77.0862 73.5001ZM77.0862 146.5L96.2379 113.021L115.39 146.5H77.0862ZM140 183.479L120.562 149.5H159.438L140 183.479ZM183.762 113.021L202.914 146.5H164.61L183.762 113.021ZM164.61 73.5001L183.762 106.979L202.914 73.5001L164.61 73.5001Z" fill="white"/>
<circle cx="140" cy="34" r="13" fill="#F19BAF"/>
<circle cx="75" cy="72" r="13" fill="#6FCFFA"/>
<circle cx="205" cy="72" r="13" fill="#8C57F6"/>
<circle cx="75" cy="144" r="13" fill="#EE80EA"/>
<circle cx="205" cy="144" r="13" fill="#F7D64B"/>
<circle cx="140" cy="186" r="13" fill="#82FBE3"/>
</svg>
