<svg width="16" height="16" viewBox="0 0 16 16" fill="none" xmlns="http://www.w3.org/2000/svg">
<path d="M14.0121 0.928652C14.305 0.635762 14.7798 0.635762 15.0727 0.928652C15.3656 1.22155 15.3656 1.69642 15.0727 1.98931L9.0623 7.9997L15.0727 14.0101C15.3656 14.303 15.3656 14.7779 15.0727 15.0708C14.7798 15.3637 14.305 15.3637 14.0121 15.0708L8.0016 9.0604L1.99127 15.0707C1.95466 15.1074 1.9152 15.1394 1.87361 15.1669C1.5825 15.3591 1.18689 15.327 0.930613 15.0707C0.637713 14.7779 0.637713 14.303 0.930613 14.0101L6.941 7.9997L0.930613 1.98936C0.637722 1.69647 0.637722 1.22159 0.930613 0.928702C1.2235 0.635812 1.69838 0.635812 1.99127 0.928702L8.0016 6.9391L14.0121 0.928652Z" fill="white"/>
</svg>
