<svg xmlns="http://www.w3.org/2000/svg" width="18" height="18" viewBox="0 0 18 18" fill="none">
<path fill-rule="evenodd" clip-rule="evenodd" d="M14.25 3H15.75C16.5785 3 17.25 3.67157 17.25 4.5V6.75C17.25 8.40683 15.9068 9.75 14.25 9.75H13.7448C12.9786 11.3628 11.4144 12.523 9.5625 12.7202V15.375H11.4375C11.7481 15.375 12 15.6269 12 15.9375C12 16.2481 11.7481 16.5 11.4375 16.5H6.5625C6.25184 16.5 6 16.2481 6 15.9375C6 15.6269 6.25184 15.375 6.5625 15.375H8.4375V12.7202C6.58557 12.523 5.02137 11.3628 4.25522 9.75H3.75C2.09314 9.75 0.75 8.40683 0.75 6.75V4.5C0.75 3.67157 1.42157 3 2.25 3H3.75V2.90625C3.75 2.1296 4.3796 1.5 5.15625 1.5H12.8438C13.6204 1.5 14.25 2.1296 14.25 2.90625V3ZM4.875 2.90625C4.875 2.75092 5.00092 2.625 5.15625 2.625H12.8438C12.9991 2.625 13.125 2.75092 13.125 2.90625V7.5C13.125 9.7782 11.2782 11.625 9 11.625C6.72183 11.625 4.875 9.7782 4.875 7.5V2.90625ZM14.1292 8.625H14.25C15.2855 8.625 16.125 7.78552 16.125 6.75V4.5C16.125 4.2929 15.9571 4.125 15.75 4.125H14.25V7.5C14.25 7.88618 14.2083 8.2626 14.1292 8.625ZM3.87082 8.625C3.79169 8.2626 3.75 7.88618 3.75 7.5V4.125H2.25C2.04289 4.125 1.875 4.2929 1.875 4.5V6.75C1.875 7.78552 2.71447 8.625 3.75 8.625H3.87082Z" fill="#82FBE3"/>
</svg>