<svg width="48" height="48" viewBox="0 0 48 48" fill="none" xmlns="http://www.w3.org/2000/svg">
<g opacity="0.5">
<path d="M9.31549 33.4689L14.773 38.9074C14.996 39.1308 15.1108 39.3943 15.1175 39.6979C15.1238 40.0019 15.009 40.2718 14.773 40.5074C14.55 40.7434 14.2865 40.8614 13.9825 40.8614C13.6788 40.8614 13.409 40.7434 13.173 40.5074L6.01149 33.3459C5.85783 33.1923 5.74766 33.0321 5.68099 32.8654C5.61433 32.6988 5.58099 32.5218 5.58099 32.3344C5.58099 32.1344 5.61433 31.9543 5.68099 31.7939C5.74766 31.6339 5.85783 31.4769 6.01149 31.3229L13.223 24.1114C13.446 23.8884 13.7095 23.7738 14.0135 23.7674C14.3175 23.7608 14.5873 23.8754 14.823 24.1114C15.046 24.3474 15.1575 24.6141 15.1575 24.9114C15.1575 25.2088 15.046 25.4691 14.823 25.6924L9.31549 31.1999H39.8655C40.1962 31.1999 40.4678 31.3063 40.6805 31.5189C40.8935 31.7319 41 32.0038 41 32.3344C41 32.6651 40.8935 32.9369 40.6805 33.1499C40.4678 33.3626 40.1962 33.4689 39.8655 33.4689H9.31549ZM38.6845 16.8499H8.13449C7.80383 16.8499 7.53216 16.7436 7.31949 16.5309C7.10649 16.3179 6.99999 16.0461 6.99999 15.7154C6.99999 15.3848 7.10649 15.1129 7.31949 14.8999C7.53216 14.6873 7.80383 14.5809 8.13449 14.5809H38.6845L33.196 9.09243C32.973 8.86909 32.8583 8.60559 32.852 8.30193C32.8457 7.99793 32.9603 7.72809 33.196 7.49243C33.419 7.25643 33.6825 7.13843 33.9865 7.13843C34.2905 7.13843 34.554 7.25643 34.777 7.49243L41.9885 14.7039C42.1422 14.8576 42.2557 15.0146 42.329 15.1749C42.402 15.3353 42.4385 15.5154 42.4385 15.7154C42.4385 15.9024 42.402 16.0761 42.329 16.2364C42.2557 16.3968 42.1422 16.5538 41.9885 16.7074L34.827 23.8884C34.604 24.1114 34.3373 24.2261 34.027 24.2324C33.7167 24.2391 33.45 24.1244 33.227 23.8884C32.991 23.6524 32.873 23.3858 32.873 23.0884C32.873 22.7911 32.991 22.5244 33.227 22.2884L38.6845 16.8499Z" fill="white"/>
</g>
</svg>
