<svg width="168" height="32" viewBox="0 0 168 32" fill="none" xmlns="http://www.w3.org/2000/svg">
<mask id="path-1-outside-1_179_9765" maskUnits="userSpaceOnUse" x="9" y="3" width="21" height="26" fill="black">
<rect fill="white" x="9" y="3" width="21" height="26"/>
<path fill-rule="evenodd" clip-rule="evenodd" d="M28.4348 4H10V9.21739H28.4348V4ZM22.6958 9.21745H15.7393V28.0001H22.6958V9.21745Z"/>
</mask>
<path fill-rule="evenodd" clip-rule="evenodd" d="M28.4348 4H10V9.21739H28.4348V4ZM22.6958 9.21745H15.7393V28.0001H22.6958V9.21745Z" fill="#F19BAF"/>
<path d="M10 4V3H9V4H10ZM28.4348 4H29.4348V3H28.4348V4ZM10 9.21739H9V10.2174H10V9.21739ZM28.4348 9.21739V10.2174H29.4348V9.21739H28.4348ZM15.7393 9.21745V8.21745H14.7393V9.21745H15.7393ZM22.6958 9.21745H23.6958V8.21745H22.6958V9.21745ZM15.7393 28.0001H14.7393V29.0001H15.7393V28.0001ZM22.6958 28.0001V29.0001H23.6958V28.0001H22.6958ZM10 5H28.4348V3H10V5ZM11 9.21739V4H9V9.21739H11ZM28.4348 8.21739H10V10.2174H28.4348V8.21739ZM27.4348 4V9.21739H29.4348V4H27.4348ZM15.7393 10.2174H22.6958V8.21745H15.7393V10.2174ZM16.7393 28.0001V9.21745H14.7393V28.0001H16.7393ZM22.6958 27.0001H15.7393V29.0001H22.6958V27.0001ZM21.6958 9.21745V28.0001H23.6958V9.21745H21.6958Z" fill="black" mask="url(#path-1-outside-1_179_9765)"/>
<path d="M16.261 5.73901H25.3045" stroke="black" stroke-width="0.4"/>
<path d="M25.6521 5.73901H25.9999" stroke="black" stroke-width="0.4"/>
<rect opacity="0.4" x="17.1306" y="10.9565" width="2.08696" height="2.08696" fill="#F5EFFE"/>
<rect opacity="0.4" x="17.1306" y="14.0869" width="2.08696" height="12.5217" fill="#F5EFFE"/>
<rect x="30.3696" y="3.5" width="19.4348" height="25" fill="#8C57F6" stroke="black"/>
<path d="M47.9131 26.6086L47.9131 17.5652" stroke="black" stroke-width="0.4"/>
<path d="M47.9131 17.2175L47.9131 16.8697" stroke="black" stroke-width="0.4"/>
<rect opacity="0.4" x="32.261" y="10.9565" width="2.08696" height="2.08696" fill="#F5EFFE"/>
<rect opacity="0.4" x="32.261" y="14.0869" width="2.08696" height="12.5217" fill="#F5EFFE"/>
<rect x="38.0217" y="11.1521" width="4.13043" height="9.69565" fill="#16104F" stroke="black"/>
<rect x="96.6304" y="3.5" width="19.4348" height="25" fill="#EE80EA" stroke="black"/>
<path d="M114.174 26.6086L114.174 17.5652" stroke="black" stroke-width="0.4"/>
<path d="M114.174 17.2175L114.174 16.8697" stroke="black" stroke-width="0.4"/>
<rect opacity="0.4" x="98.5217" y="10.9565" width="2.08696" height="2.08696" fill="#F5EFFE"/>
<rect opacity="0.4" x="98.5217" y="14.0869" width="2.08696" height="12.5217" fill="#F5EFFE"/>
<rect x="104.282" y="11.1521" width="4.13043" height="9.69565" fill="#16104F" stroke="black"/>
<rect x="117.5" y="3.5" width="19.4348" height="25" fill="#6FCFFA" stroke="black"/>
<path d="M135.043 26.6086L135.043 17.5652" stroke="black" stroke-width="0.4"/>
<path d="M135.043 17.2175L135.043 16.8697" stroke="black" stroke-width="0.4"/>
<rect opacity="0.4" x="119.391" y="10.9565" width="2.08696" height="2.08696" fill="#F5EFFE"/>
<rect opacity="0.4" x="119.391" y="14.0869" width="2.08696" height="12.5217" fill="#F5EFFE"/>
<rect x="125.152" y="11.1521" width="4.13043" height="9.69565" fill="#16104F" stroke="black"/>
<mask id="path-25-outside-2_179_9765" maskUnits="userSpaceOnUse" x="50.739" y="3" width="21" height="26" fill="black">
<rect fill="white" x="50.739" y="3" width="21" height="26"/>
<path fill-rule="evenodd" clip-rule="evenodd" d="M69.826 4H51.739V28H58.3477V9.21745H63.2172V28H69.826V4Z"/>
</mask>
<path fill-rule="evenodd" clip-rule="evenodd" d="M69.826 4H51.739V28H58.3477V9.21745H63.2172V28H69.826V4Z" fill="#F7D64B"/>
<path d="M51.739 4V3H50.739V4H51.739ZM69.826 4H70.826V3H69.826V4ZM51.739 28H50.739V29H51.739V28ZM58.3477 28V29H59.3477V28H58.3477ZM58.3477 9.21745V8.21745H57.3477V9.21745H58.3477ZM63.2172 9.21745H64.2172V8.21745H63.2172V9.21745ZM63.2172 28H62.2172V29H63.2172V28ZM69.826 28V29H70.826V28H69.826ZM51.739 5H69.826V3H51.739V5ZM52.739 28V4H50.739V28H52.739ZM58.3477 27H51.739V29H58.3477V27ZM59.3477 28V9.21745H57.3477V28H59.3477ZM58.3477 10.2174H63.2172V8.21745H58.3477V10.2174ZM62.2172 9.21745V28H64.2172V9.21745H62.2172ZM69.826 27H63.2172V29H69.826V27ZM68.826 4V28H70.826V4H68.826Z" fill="black" mask="url(#path-25-outside-2_179_9765)"/>
<rect opacity="0.4" x="52.7825" y="12.8696" width="2.08696" height="2.08696" fill="#F5EFFE"/>
<rect opacity="0.4" x="52.7825" y="16" width="2.08696" height="9.91304" fill="#F5EFFE"/>
<path d="M68.4348 26.4348L68.4348 13.7392" stroke="black" stroke-width="0.4"/>
<path d="M68.4348 13.3914L68.4348 13.0435" stroke="black" stroke-width="0.4"/>
<path d="M76.4348 3.5H75.9348V4V28V28.5H76.4348H83.3913H83.8913V28V20.1521H87.2389L87.2389 20.8168L87.9386 20.1521H88.2389V19.8668L95.04 13.406L95.1956 13.2581L95.1956 13.0434L95.1955 9.71739V9.21739V4V3.5H94.6955H76.4348ZM87.239 12.8913H83.8913V9.71739H87.2391L87.239 12.8913Z" fill="#82FBE3" stroke="black"/>
<path d="M91.5652 14.261L87.5652 18.261" stroke="black" stroke-width="0.4"/>
<path d="M92.0868 13.739L91.739 14.0868" stroke="black" stroke-width="0.4"/>
<rect opacity="0.4" x="77.8259" y="13.5652" width="2.08696" height="2.08696" fill="#F5EFFE"/>
<rect opacity="0.4" x="77.8259" y="16.6956" width="2.08696" height="9.91304" fill="#F5EFFE"/>
<rect opacity="0.4" x="88.7825" y="7.47827" width="2.08696" height="4.52174" transform="rotate(-90 88.7825 7.47827)" fill="#F5EFFE"/>
<mask id="path-37-outside-3_179_9765" maskUnits="userSpaceOnUse" x="137.87" y="3" width="21" height="26" fill="black">
<rect fill="white" x="137.87" y="3" width="21" height="26"/>
<path fill-rule="evenodd" clip-rule="evenodd" d="M138.87 4H145.826V28H138.87V4ZM150.174 19.1304H157.131V27.9999H150.174L145.826 27.9999V22.7826H150.174L150.174 19.1304Z"/>
</mask>
<path fill-rule="evenodd" clip-rule="evenodd" d="M138.87 4H145.826V28H138.87V4ZM150.174 19.1304H157.131V27.9999H150.174L145.826 27.9999V22.7826H150.174L150.174 19.1304Z" fill="#8C57F6"/>
<path d="M145.826 4H146.826V3H145.826V4ZM138.87 4V3H137.87V4H138.87ZM145.826 28V29H146.826V28H145.826ZM138.87 28H137.87V29H138.87V28ZM157.131 19.1304H158.131V18.1304H157.131V19.1304ZM150.174 19.1304V18.1304H149.174L149.174 19.1304L150.174 19.1304ZM157.131 27.9999V28.9999H158.131V27.9999H157.131ZM150.174 27.9999V26.9999H150.174L150.174 27.9999ZM145.826 27.9999H144.826V28.9999L145.826 28.9999L145.826 27.9999ZM145.826 22.7826V21.7826H144.826V22.7826H145.826ZM150.174 22.7826V23.7826H151.174L151.174 22.7826L150.174 22.7826ZM145.826 3H138.87V5H145.826V3ZM146.826 28V4H144.826V28H146.826ZM138.87 29H145.826V27H138.87V29ZM137.87 4V28H139.87V4H137.87ZM157.131 18.1304H150.174V20.1304H157.131V18.1304ZM158.131 27.9999V19.1304H156.131V27.9999H158.131ZM150.174 28.9999H157.131V26.9999H150.174V28.9999ZM150.174 26.9999L145.826 26.9999L145.826 28.9999L150.174 28.9999L150.174 26.9999ZM146.826 27.9999V22.7826H144.826V27.9999H146.826ZM145.826 23.7826H150.174V21.7826H145.826V23.7826ZM149.174 19.1304L149.174 22.7826L151.174 22.7826L151.174 19.1304L149.174 19.1304Z" fill="black" mask="url(#path-37-outside-3_179_9765)"/>
<rect opacity="0.4" x="140.261" y="13.5652" width="2.08696" height="2.08696" fill="#F5EFFE"/>
<rect opacity="0.4" x="140.261" y="16.6956" width="2.08696" height="9.91304" fill="#F5EFFE"/>
<path d="M146 26.6086H155.043" stroke="black" stroke-width="0.4"/>
<path d="M155.391 26.6086H155.739" stroke="black" stroke-width="0.4"/>
</svg>
