<svg xmlns="http://www.w3.org/2000/svg" width="18" height="18" viewBox="0 0 18 18" fill="none">
<path d="M9 12.1875C9.5178 12.1875 9.9375 11.7678 9.9375 11.25C9.9375 10.7322 9.5178 10.3125 9 10.3125C8.4822 10.3125 8.0625 10.7322 8.0625 11.25C8.0625 11.7678 8.4822 12.1875 9 12.1875Z" fill="white"/>
<path fill-rule="evenodd" clip-rule="evenodd" d="M12.75 6.75V4.5C12.75 2.42894 11.0711 0.75 9 0.75C6.92894 0.75 5.25 2.42894 5.25 4.5V6.75H3.75C2.92157 6.75 2.25 7.42157 2.25 8.25V14.25C2.25 15.0784 2.92157 15.75 3.75 15.75H14.25C15.0784 15.75 15.75 15.0784 15.75 14.25V8.25C15.75 7.42157 15.0784 6.75 14.25 6.75H12.75ZM9 1.875C7.55025 1.875 6.375 3.05025 6.375 4.5V6.75H11.625V4.5C11.625 3.05025 10.4497 1.875 9 1.875ZM3.375 8.25C3.375 8.04292 3.5429 7.875 3.75 7.875H14.25C14.4571 7.875 14.625 8.04292 14.625 8.25V14.25C14.625 14.4571 14.4571 14.625 14.25 14.625H3.75C3.5429 14.625 3.375 14.4571 3.375 14.25V8.25Z" fill="white"/>
</svg>