<svg width="24" height="24" viewBox="0 0 24 24" fill="none" xmlns="http://www.w3.org/2000/svg">
<path d="M8.99998 21H6.56153C5.26039 21 4.30567 19.7772 4.62125 18.5149L5.43188 15.2724C5.76576 13.9369 6.96571 13 8.34231 13H15.6576C17.0343 13 18.2342 13.9369 18.5681 15.2724L19.3787 18.5149C19.6943 19.7772 18.7396 21 17.4384 21H15M12 10C10.6193 10 9.5 8.88071 9.5 7.5V5.5C9.5 4.11929 10.6193 3 12 3C13.3807 3 14.5 4.11929 14.5 5.5V7.5C14.5 8.88071 13.3807 10 12 10Z" stroke="white" stroke-width="1.5" stroke-linecap="round" stroke-linejoin="round"/>
</svg>
