<svg width="24" height="24" viewBox="0 0 24 24" fill="none" xmlns="http://www.w3.org/2000/svg">
<path d="M11.7827 16.95C11.5066 16.95 11.2827 16.7261 11.2827 16.45V10.5864C11.2827 10.3102 11.5066 10.0864 11.7827 10.0864H12.2161C12.4923 10.0864 12.7161 10.3102 12.7161 10.5864V16.45C12.7161 16.7261 12.4923 16.95 12.2161 16.95H11.7827Z" fill="#DB963B"/>
<path d="M12.0066 8.45018C11.7573 8.45018 11.5432 8.36708 11.3642 8.20089C11.1884 8.0315 11.1005 7.83015 11.1005 7.59684C11.1005 7.36034 11.1884 7.15899 11.3642 6.99279C11.5432 6.8234 11.7573 6.73871 12.0066 6.73871C12.2559 6.73871 12.4684 6.8234 12.6442 6.99279C12.8232 7.15899 12.9127 7.36034 12.9127 7.59684C12.9127 7.83015 12.8232 8.0315 12.6442 8.20089C12.4684 8.36708 12.2559 8.45018 12.0066 8.45018Z" fill="#DB963B"/>
<path fill-rule="evenodd" clip-rule="evenodd" d="M22 12C22 17.5228 17.5228 22 12 22C6.47715 22 2 17.5228 2 12C2 6.47715 6.47715 2 12 2C17.5228 2 22 6.47715 22 12ZM20.5 12C20.5 16.6944 16.6944 20.5 12 20.5C7.30558 20.5 3.5 16.6944 3.5 12C3.5 7.30558 7.30558 3.5 12 3.5C16.6944 3.5 20.5 7.30558 20.5 12Z" fill="#DB963B"/>
</svg>
