<svg width="34" height="34" viewBox="0 0 34 34" fill="none" xmlns="http://www.w3.org/2000/svg">
<path d="M26.2083 19.8333C26.2083 20.8114 25.4155 21.6042 24.4375 21.6042C23.4594 21.6042 22.6666 20.8114 22.6666 19.8333C22.6666 18.8553 23.4594 18.0625 24.4375 18.0625C25.4155 18.0625 26.2083 18.8553 26.2083 19.8333Z" fill="#0D0D0D"/>
<path fill-rule="evenodd" clip-rule="evenodd" d="M6.72915 4.25C4.57754 4.25 2.83331 5.99423 2.83331 8.14583V26.9167C2.83331 28.4815 4.10184 29.75 5.66665 29.75H28.3333C29.8982 29.75 31.1666 28.4815 31.1666 26.9167V12.75C31.1666 11.1852 29.8982 9.91667 28.3333 9.91667V7.08333C28.3333 5.51853 27.0648 4.25 25.5 4.25H6.72915ZM26.2083 7.08333C26.2083 6.69213 25.8911 6.375 25.5 6.375H6.72915C5.75114 6.375 4.95831 7.16782 4.95831 8.14583C4.95831 9.12384 5.75114 9.91667 6.72915 9.91667H26.2083V7.08333ZM4.95831 11.6169C5.48961 11.8885 6.09149 12.0417 6.72915 12.0417H28.3333C28.7245 12.0417 29.0416 12.3588 29.0416 12.75V26.9167C29.0416 27.3078 28.7245 27.625 28.3333 27.625H5.66665C5.27545 27.625 4.95831 27.3078 4.95831 26.9167V11.6169Z" fill="#0D0D0D"/>
</svg>
