<svg width="24" height="24" viewBox="0 0 24 24" fill="none" xmlns="http://www.w3.org/2000/svg">
<path d="M3 7.24976C3 6.83554 3.33579 6.49976 3.75 6.49976H20.25C20.6642 6.49976 21 6.83554 21 7.24976C21 7.66397 20.6642 7.99976 20.25 7.99976H3.75C3.33579 7.99976 3 7.66397 3 7.24976Z" fill="white"/>
<path d="M3.75 11.2497C3.33579 11.2497 3 11.5855 3 11.9997C3 12.4139 3.33579 12.7497 3.75 12.7497H14.25C14.6642 12.7497 15 12.4139 15 11.9997C15 11.5855 14.6642 11.2497 14.25 11.2497H3.75Z" fill="white"/>
<path d="M3 16.7498C3 16.3355 3.33579 15.9998 3.75 15.9998H8.25C8.66421 15.9998 9 16.3355 9 16.7498C9 17.164 8.66421 17.4998 8.25 17.4998H3.75C3.33579 17.4998 3 17.164 3 16.7498Z" fill="white"/>
</svg>
