<svg width="24" height="24" viewBox="0 0 24 24" fill="none" xmlns="http://www.w3.org/2000/svg">
<path d="M6.68805 21.6072L6.93576 20.8993L6.68805 21.6072ZM2.39282 17.312L3.10073 17.0642L2.39282 17.312ZM21.6072 17.312L20.8993 17.0642L21.6072 17.312ZM17.312 21.6072L17.0642 20.8993L17.312 21.6072ZM17.312 2.39282L17.0642 3.10073L17.312 2.39282ZM21.6072 6.68805L20.8993 6.93576L21.6072 6.68805ZM6.68805 2.39282L6.93576 3.10073L6.68805 2.39282ZM2.39282 6.68805L3.10073 6.93576L2.39282 6.68805ZM15.6071 12.5625C15.6071 12.1483 15.2714 11.8125 14.8571 11.8125C14.4429 11.8125 14.1071 12.1483 14.1071 12.5625H15.6071ZM14.1071 14.25C14.1071 14.6642 14.4429 15 14.8571 15C15.2714 15 15.6071 14.6642 15.6071 14.25H14.1071ZM12.75 10.0961C12.75 9.68188 12.4142 9.34609 12 9.34609C11.5858 9.34609 11.25 9.68188 11.25 10.0961H12.75ZM11.25 14.2499C11.25 14.6641 11.5858 14.9999 12 14.9999C12.4142 14.9999 12.75 14.6641 12.75 14.2499H11.25ZM9.89286 7.5C9.89286 7.08579 9.55707 6.75 9.14286 6.75C8.72864 6.75 8.39286 7.08579 8.39286 7.5H9.89286ZM8.39286 14.25C8.39286 14.6642 8.72864 15 9.14286 15C9.55707 15 9.89286 14.6642 9.89286 14.25H8.39286ZM16 17.25C16.4142 17.25 16.75 16.9142 16.75 16.5C16.75 16.0858 16.4142 15.75 16 15.75V17.25ZM8 15.75C7.58579 15.75 7.25 16.0858 7.25 16.5C7.25 16.9142 7.58579 17.25 8 17.25V15.75ZM12 21.25C9.14433 21.25 7.90776 21.2394 6.93576 20.8993L6.44034 22.3151C7.71354 22.7606 9.26987 22.75 12 22.75V21.25ZM1.25 12C1.25 14.7301 1.23939 16.2865 1.6849 17.5597L3.10073 17.0642C2.76061 16.0922 2.75 14.8557 2.75 12H1.25ZM6.93576 20.8993C5.14046 20.2711 3.72893 18.8595 3.10073 17.0642L1.6849 17.5597C2.46387 19.7858 4.21417 21.5361 6.44034 22.3151L6.93576 20.8993ZM21.25 12C21.25 14.8557 21.2394 16.0922 20.8993 17.0642L22.3151 17.5597C22.7606 16.2865 22.75 14.7301 22.75 12H21.25ZM12 22.75C14.7301 22.75 16.2865 22.7606 17.5597 22.3151L17.0642 20.8993C16.0922 21.2394 14.8557 21.25 12 21.25V22.75ZM20.8993 17.0642C20.2711 18.8595 18.8595 20.2711 17.0642 20.8993L17.5597 22.3151C19.7858 21.5361 21.5361 19.7858 22.3151 17.5597L20.8993 17.0642ZM12 2.75C14.8557 2.75 16.0922 2.76061 17.0642 3.10073L17.5597 1.6849C16.2865 1.23939 14.7301 1.25 12 1.25V2.75ZM22.75 12C22.75 9.26987 22.7606 7.71354 22.3151 6.44034L20.8993 6.93576C21.2394 7.90776 21.25 9.14433 21.25 12H22.75ZM17.0642 3.10073C18.8595 3.72893 20.2711 5.14046 20.8993 6.93576L22.3151 6.44034C21.5361 4.21417 19.7858 2.46387 17.5597 1.6849L17.0642 3.10073ZM12 1.25C9.26987 1.25 7.71354 1.23939 6.44034 1.6849L6.93576 3.10073C7.90776 2.76061 9.14433 2.75 12 2.75V1.25ZM2.75 12C2.75 9.14433 2.76061 7.90776 3.10073 6.93576L1.6849 6.44034C1.23939 7.71354 1.25 9.26987 1.25 12H2.75ZM6.44034 1.6849C4.21417 2.46387 2.46387 4.21417 1.6849 6.44034L3.10073 6.93576C3.72893 5.14046 5.14046 3.72893 6.93576 3.10073L6.44034 1.6849ZM14.1071 12.5625V14.25H15.6071V12.5625H14.1071ZM11.25 10.0961V14.2499H12.75V10.0961H11.25ZM8.39286 7.5V14.25H9.89286V7.5H8.39286ZM16 15.75H8V17.25H16V15.75Z" fill="white"/>
</svg>
