<svg width="280" height="214" viewBox="0 0 280 214" fill="none" xmlns="http://www.w3.org/2000/svg">
<rect width="280" height="214" rx="16" fill="#1C276E"/>
<path d="M208 106.5C208 97.6358 206.254 88.8583 202.862 80.6689C199.47 72.4794 194.498 65.0382 188.23 58.7703C181.962 52.5023 174.521 47.5303 166.331 44.1381C158.142 40.7459 149.364 39 140.5 39" stroke="white" stroke-width="14"/>
<path d="M73 106C73 114.864 74.7459 123.642 78.1381 131.831C81.5303 140.021 86.5023 147.462 92.7703 153.73C99.0383 159.998 106.479 164.97 114.669 168.362C122.858 171.754 131.636 173.5 140.5 173.5" stroke="white" stroke-width="14"/>
<circle cx="140.5" cy="106.5" r="67.5" stroke="#6FCFFA" stroke-width="2"/>
<path d="M208 106.5C208 97.6358 206.254 88.8583 202.862 80.6689C199.47 72.4794 194.498 65.0382 188.23 58.7703C181.962 52.5023 174.521 47.5303 166.331 44.1381C158.142 40.7459 149.364 39 140.5 39" stroke="#1C276E" stroke-width="2"/>
<path d="M73 106.5C73 115.364 74.7459 124.142 78.1381 132.331C81.5303 140.521 86.5023 147.962 92.7703 154.23C99.0382 160.498 106.479 165.47 114.669 168.862C122.858 172.254 131.636 174 140.5 174" stroke="#1C276E" stroke-width="2"/>
<circle cx="208" cy="106" r="26" fill="#FFD200"/>
<circle cx="74" cy="106" r="26" fill="#6FCFFA"/>
<path fill-rule="evenodd" clip-rule="evenodd" d="M227.742 108C227.813 107.318 227.849 106.625 227.849 105.925C227.849 94.9205 218.929 86 207.925 86C196.921 86 188 94.9205 188 105.925C188 106.625 188.036 107.318 188.107 108C189.145 97.9713 197.621 90.151 207.925 90.151C218.228 90.151 226.704 97.9714 227.742 108Z" fill="#140F4C"/>
<path d="M71.9815 116V101.9L68.7715 102.38V97.67L77.6215 96.38V116H71.9815Z" fill="#26356F"/>
</svg>
