<svg width="280" height="214" viewBox="0 0 280 214" fill="none" xmlns="http://www.w3.org/2000/svg">
<rect width="280" height="214" rx="16" fill="#1C276E"/>
<path d="M75 74C75 71.7909 76.7909 70 79 70H198V78H79C76.7909 78 75 76.2091 75 74Z" fill="#140F4C"/>
<path d="M109 0H171V70C171 87.1208 157.121 101 140 101C122.879 101 109 87.1208 109 70V0Z" fill="white"/>
<path d="M130 22.5V43M119.5 13V53" stroke="#140F4C"/>
<path d="M156.5 3.5V40.5M150 10.5V43M136.5 1V30.5" stroke="#140F4C"/>
<circle cx="140" cy="70" r="31" fill="#FFD200"/>
<path fill-rule="evenodd" clip-rule="evenodd" d="M163.871 72.5C163.956 71.6783 164 70.8442 164 70C164 56.7452 153.255 46 140 46C126.745 46 116 56.7452 116 70C116 70.8442 116.044 71.6783 116.129 72.5C117.379 60.42 127.589 51 140 51C152.411 51 162.621 60.42 163.871 72.5Z" fill="#140F4C"/>
<path d="M75 82C75 79.7909 76.7909 78 79 78H205V168H79C76.7909 168 75 166.209 75 164V82Z" fill="#6FCFFA"/>
<rect x="75" y="74" width="34" height="40" fill="#6FCFFA"/>
<circle cx="140" cy="123" r="23" fill="#FFD200"/>
<path d="M75 74C75 71.7909 76.7909 70 79 70H109V78H79C76.7909 78 75 76.2091 75 74Z" fill="#140F4C"/>
<path d="M195 72C195 70.8954 194.105 70 193 70H171V74H193C194.105 74 195 73.1046 195 72Z" fill="#140F4C"/>
<path d="M139.448 133V113H140.552V133H139.448ZM130 123.552V122.448H150V123.552H130Z" fill="#140F4C"/>
<path d="M91 91V160" stroke="#140F4C"/>
<path d="M205 140L196 140C189.925 140 185 135.075 185 129C185 122.925 189.925 118 196 118L205 118L205 140Z" fill="#140F4C"/>
<path d="M204 136L196.5 136C190.149 136 185 130.851 185 124.5C185 118.149 190.149 113 196.5 113L204 113L204 136Z" fill="white"/>
<path d="M204 113H212V128C212 132.418 208.418 136 204 136V113Z" fill="white"/>
<path d="M205 109H212V120H205V109Z" fill="white"/>
<path d="M205 105H208C210.209 105 212 106.791 212 109C212 111.209 210.209 113 208 113H205V105Z" fill="#140F4C"/>
<circle cx="196.181" cy="124.444" r="2.43056" fill="#140F4C"/>
</svg>
